PathFileType	4	(X/Y/Z)	/Users/niels/Desktop/University/Third Semester/Perception and Action/Exam/Gymnastics Motion Tracking/Code for Gym Tracking/Analyzed Data/Start Salto/stsalto_bad_id15_1_Sports2D/stsalto_bad_id15_1_Sports2D_px_person00.trc
DataRate	CameraRate	NumFrames	NumMarkers	Units	OrigDataRate	OrigDataStartFrame	OrigNumFrames
29.85576923076923	29.85576923076923	7	22	m	29.85576923076923	0	208
Frame#	Time	Hip			RHip			RKnee			RAnkle			RBigToe			RSmallToe			RHeel			LHip			LKnee			LAnkle			LBigToe			LSmallToe			LHeel			Neck			Head			Nose			RShoulder			RElbow			RWrist			LShoulder			LElbow			LWrist		
		X1	Y1	Z1	X2	Y2	Z2	X3	Y3	Z3	X4	Y4	Z4	X5	Y5	Z5	X6	Y6	Z6	X7	Y7	Z7	X8	Y8	Z8	X9	Y9	Z9	X10	Y10	Z10	X11	Y11	Z11	X12	Y12	Z12	X13	Y13	Z13	X14	Y14	Z14	X15	Y15	Z15	X16	Y16	Z16	X17	Y17	Z17	X18	Y18	Z18	X19	Y19	Z19	X20	Y20	Z20	X21	Y21	Z21	X22	Y22	Z22
0	0.0	-0.01306613746722809	-0.5722846907663568	0.0	0.0037060796464036486	-0.5995405063481236	0.0	0.04459537853830546	-0.6634797013455649	0.0	-0.0004823769126853932	-0.7745597714311299	0.0	0.02888243334458118	-0.8112444885771736	0.0	0.02260888144723865	-0.8102032821388754	0.0	-0.007816757478806498	-0.7871300892520924	0.0	-0.0057345282802895945	-0.5932487821516453	0.0	0.04353894609225636	-0.6634716214226455	0.0	-0.0015831375447810433	-0.7724992660439629	0.0	0.029875332896039004	-0.8112681094191121	0.0	0.027784083912466936	-0.8081238493172844	0.0	-0.011019835556020227	-0.7924114128987451	0.0	-0.010989599060282641	-0.400352284568292	0.0	0.04868804739695179	-0.48530814232597885	0.0	-0.0036549275678292655	-0.4003701461283691	0.0	-0.0036353107713812463	-0.48213097270244265	0.0	0.010034006050207227	-0.5219974964380723	0.0	0.03208193405015884	-0.5230931967401642	0.0	-0.004708491015889722	-0.48318160076507755	0.0	0.00787601573210763	-0.5198847159419414	0.0	0.031983879146509714	-0.5230277092705354	0.0
1	0.03349436392914654	0.006720241134606135	-0.5596104306762137	0.0	0.01065676138487029	-0.5805360434274432	0.0	0.04210919216979584	-0.659305109557177	0.0	0.005094083050908952	-0.7656892234777549	0.0	0.03693105879157182	-0.8006909323668164	0.0	0.028131306837906593	-0.7980696764171193	0.0	0.001807489502177705	-0.7754704934039601	0.0	0.020422697336879007	-0.5743311524655589	0.0	0.08755128980290736	-0.6400887855384898	0.0	0.06448426199330257	-0.7534114486903948	0.0	0.10394323107935564	-0.7849043267413991	0.0	0.10151257852477052	-0.7810119331728276	0.0	0.05577510529675876	-0.773146196484997	0.0	0.0027780254785286403	-0.39306607458856435	0.0	0.043285506810699176	-0.41618636636738887	0.0	0.019501909249247884	-0.38098482682417945	0.0	-0.0003122686738442209	-0.44868646976204773	0.0	0.02410480653936264	-0.479719456774874	0.0	0.0550144723974849	-0.4618718450430238	0.0	0.019213141416576106	-0.45269735122341215	0.0	0.05108707804802765	-0.4890823722196407	0.0	0.08452107570758392	-0.4781464041838216	0.0
2	0.06698872785829307	0.029365815621190644	-0.5465979917370105	0.0	0.021440692422006316	-0.562506175247429	0.0	0.044340901147649256	-0.6566857046557312	0.0	0.008586397798147571	-0.7568366106572283	0.0	0.040618551669574295	-0.7923590182545976	0.0	0.029290950546336257	-0.7883017028545464	0.0	0.008131143530031547	-0.7639279184057477	0.0	0.04880597068772625	-0.5561275464803912	0.0	0.1305951544192423	-0.6192189503064853	0.0	0.12597935239741453	-0.7358730923732802	0.0	0.17191089912540494	-0.7614407510990338	0.0	0.16934682398135703	-0.75688464406143	0.0	0.11794332878456971	-0.755439861806873	0.0	0.020118449812571344	-0.38333391437141795	0.0	0.045664387445373836	-0.35618870757029786	0.0	0.04526371565563116	-0.36136512911726587	0.0	0.006415036223971982	-0.41794413641123523	0.0	0.04116301002437583	-0.43826300450263755	0.0	0.08190673252299578	-0.40474819635060105	0.0	0.04569086655511073	-0.42505956418406327	0.0	0.09480179896292822	-0.45931685405051803	0.0	0.13619767952721953	-0.435566313465422	0.0
3	0.10048309178743961	0.05651501049399551	-0.5334694662663882	0.0	0.0388083245746147	-0.5461901335104343	0.0	0.05686887442755632	-0.6550633926329213	0.0	0.013518630296869354	-0.7478437673638414	0.0	0.0426558721969584	-0.7867545360424367	0.0	0.02890892252942736	-0.7817240913867581	0.0	0.013406124292675637	-0.7527600991597607	0.0	0.08039111205943156	-0.5393279962051637	0.0	0.1719243146188579	-0.6027030439831905	0.0	0.1800895124628084	-0.7214871156638798	0.0	0.2301870610498156	-0.7431256149076484	0.0	0.22780103457281348	-0.7380863894978239	0.0	0.1725508717140894	-0.7407919495976566	0.0	0.04383370546465691	-0.3713371445366718	0.0	0.06072349922663749	-0.311136772788145	0.0	0.07569581330456726	-0.3429588594316865	0.0	0.019827529492480886	-0.39188652133148766	0.0	0.06339563104777625	-0.39907844140303383	0.0	0.11366736388618834	-0.3545731386429859	0.0	0.07630482065479062	-0.4023044909460807	0.0	0.1392149276873734	-0.4316835692902306	0.0	0.18656405527290923	-0.39747961050215547	0.0
4	0.13397745571658615	0.08807660253144817	-0.5211754229171038	0.0	0.06348394927674265	-0.5322884024169308	0.0	0.08305356905395807	-0.6525314001397982	0.0	0.02709811496786758	-0.7388746765847946	0.0	0.05168405511220457	-0.7828321470410878	0.0	0.03584884245229168	-0.7776536213504591	0.0	0.02448715960501606	-0.7425563097334567	0.0	0.11465220362707876	-0.5247518466283799	0.0	0.2108887786784668	-0.5915256816715357	0.0	0.2261321953174886	-0.7114961220890618	0.0	0.27830254573876123	-0.7310025178430966	0.0	0.27636542050569984	-0.725700246166394	0.0	0.21885743689438952	-0.730287704650698	0.0	0.07475977944261954	-0.3592089172819931	0.0	0.0888626195035435	-0.2819829365392768	0.0	0.11123997071207481	-0.32777291665184993	0.0	0.04186714200811019	-0.3715682582404227	0.0	0.09093760869996936	-0.3641188932435972	0.0	0.1480369071250669	-0.31275935857056514	0.0	0.11112521572206505	-0.3851934443376605	0.0	0.18388715667306657	-0.4072447690465876	0.0	0.23535080815396417	-0.36565650826539037	0.0
5	0.16747181964573268	0.12298472283209202	-0.5110115758795343	0.0	0.09453706262263298	-0.5215947291502756	0.0	0.12193138740002192	-0.6479399174455722	0.0	0.05502729627710899	-0.7310111614971766	0.0	0.07624487628345605	-0.7793477103269025	0.0	0.058892599837223523	-0.7749602376183762	0.0	0.04825377901661927	-0.7345280345470105	0.0	0.15061045186257985	-0.5133506669013308	0.0	0.24724208790366345	-0.5858909564178598	0.0	0.2655081052175941	-0.7062909849731047	0.0	0.318443664970538	-0.7247666481213532	0.0	0.31707485947338404	-0.7193778536262467	0.0	0.2583725070308014	-0.7243155038935124	0.0	0.11190978941088804	-0.34904395918150655	0.0	0.1272843130444035	-0.2660929304898908	0.0	0.15104635681142706	-0.3169618442777103	0.0	0.07249721631264851	-0.3572154776307904	0.0	0.12227811897805267	-0.3350114510582469	0.0	0.18212228729825067	-0.2795883598782101	0.0	0.14937628320014093	-0.37338470854938494	0.0	0.2282548669924506	-0.3868058781902537	0.0	0.282615298334354	-0.3410721574410369	0.0
6	0.20096618357487922	0.16001643011587754	-0.5039974592958648	0.0	0.13032394640146233	-0.5146810254312398	0.0	0.16959060512227903	-0.641616397014034	0.0	0.09869116718845099	-0.7259383613988111	0.0	0.11983434186486734	-0.7758489089713103	0.0	0.10167038440283815	-0.7729647833463589	0.0	0.08791106649669621	-0.7303409381793057	0.0	0.18756728321021268	-0.5058762206212236	0.0	0.281341880157281	-0.5853001748372869	0.0	0.3009967531659854	-0.7054195117645219	0.0	0.354115390705204	-0.7231725732080234	0.0	0.35324501766903127	-0.7178089517389344	0.0	0.29406272767766606	-0.7226595490788461	0.0	0.15351738053636418	-0.342021183109705	0.0	0.17228656698845088	-0.2597375966875528	0.0	0.1939439809930281	-0.31075483587933733	0.0	0.1101439570718966	-0.3483288547878758	0.0	0.1558904638878491	-0.3124280930739973	0.0	0.21442906613966517	-0.2545791791869455	0.0	0.1901365355196489	-0.36605648572415284	0.0	0.2720673808644984	-0.37085265350016006	0.0	0.3287694683900097	-0.323849990185186	0.0
